PathFileType	4	(X/Y/Z)	OpenSim_Sub03_CSStiffKnee_Magnet.trc
DataRate	CameraRate	NumFrames	NumMarkers	Units	OrigDataRate	OrigDataStartFrame	OrigNumFrames
100	100	13	8	m	100	910	3637
Frame#	Time	torso_imu_offset_imu	pelvis_imu_offset_imu	tibia_r_imu_offset_imu	femur_r_imu_offset_imu	tibia_l_imu_offset_imu	femur_l_imu_offset_imu	toes_r_imu_offset_imu	toes_l_imu_offset_imu
				X1	Y1	Z1	X2	Y2	Z2	X3	Y3	Z3	X4	Y4	Z4	X5	Y5	Z5	X6	Y6	Z6	X7	Y7	Z7	X8		Y8	Z8	

910	9.09000000	-0.89965800	-0.24511700	0.20678700	-0.73510700	0.20532200	-0.59423800	-0.15454100	-0.81347700	-0.12793000	-0.69213900	-0.56933600	-0.22143600	-0.64526400	0.41821300	0.31713900	-0.70239300	0.25293000	0.39184600	-0.65844700	-0.65551800	-0.00610400	-0.74902300	-0.16796900	-0.33422900
911	9.10000000	-0.89770500	-0.23852500	0.20214800	-0.73510700	0.20752000	-0.58960000	-0.16308600	-0.81347700	-0.13452100	-0.69458000	-0.55712900	-0.22192400	-0.63208000	0.42260700	0.31689500	-0.70703100	0.25927700	0.39404300	-0.65234400	-0.65332000	-0.00830100	-0.75805700	-0.16577100	-0.32763700
912	9.11000000	-0.89941400	-0.24707000	0.20239300	-0.73315400	0.21167000	-0.58984400	-0.16088900	-0.81787100	-0.12768600	-0.70361300	-0.53857400	-0.22265600	-0.63647500	0.42700200	0.32348600	-0.69628900	0.26831100	0.40063500	-0.66064500	-0.65332000	-0.01464800	-0.75805700	-0.16796900	-0.31860400
913	9.12000000	-0.89941400	-0.24707000	0.19799800	-0.72900400	0.21582000	-0.58764600	-0.17553700	-0.81372100	-0.12133800	-0.70605500	-0.52612300	-0.21850600	-0.63452100	0.42919900	0.32104500	-0.69433600	0.27270500	0.38720700	-0.66723600	-0.63501000	-0.02319300	-0.76049800	-0.16137700	-0.31860400
914	9.13000000	-0.89721700	-0.25122100	0.20263700	-0.72729500	0.22851600	-0.59741200	-0.18627900	-0.80737300	-0.11254900	-0.71069300	-0.51367200	-0.21460000	-0.63012700	0.43798800	0.32495100	-0.69262700	0.28564500	0.39160200	-0.67382800	-0.62304700	-0.03173800	-0.76928700	-0.16381800	-0.31420900
915	9.14000000	-0.89282200	-0.25756800	0.20068400	-0.72729500	0.23071300	-0.58349600	-0.19458000	-0.81152300	-0.09668000	-0.71508800	-0.50122100	-0.21508800	-0.62597700	0.44677700	0.32226600	-0.69067400	0.29443400	0.38696300	-0.68481400	-0.60058600	-0.03418000	-0.77148400	-0.16601600	-0.30517600
916	9.15000000	-0.89941400	-0.25341800	0.19824200	-0.72534200	0.23486300	-0.59301800	-0.21777300	-0.80542000	-0.09472700	-0.72192400	-0.48486300	-0.21557600	-0.62817400	0.44897500	0.32666000	-0.68872100	0.30297900	0.38916000	-0.69775400	-0.58447300	-0.04492200	-0.77856400	-0.15942400	-0.29834000
917	9.16000000	-0.89917000	-0.25561500	0.19848600	-0.72119100	0.23901400	-0.59545900	-0.23681600	-0.79931600	-0.08618200	-0.71997100	-0.47851600	-0.20898400	-0.61962900	0.45556600	0.32397500	-0.68676800	0.30957000	0.38232400	-0.71508800	-0.56225600	-0.05786100	-0.78295900	-0.15966800	-0.28491200
918	9.17000000	-0.89721700	-0.25341800	0.20043900	-0.72338900	0.23901400	-0.59301800	-0.24951200	-0.79077100	-0.08203100	-0.73486300	-0.47241200	-0.20019500	-0.61743200	0.46215800	0.32592800	-0.68481400	0.31835900	0.38427700	-0.72778300	-0.54809600	-0.08105500	-0.78540000	-0.15527300	-0.28271500
919	9.18000000	-0.89502000	-0.25561500	0.20068400	-0.72143600	0.25170900	-0.59350600	-0.27270500	-0.78466800	-0.07763700	-0.73730500	-0.46215800	-0.19604500	-0.61743200	0.46215800	0.32812500	-0.68261700	0.31835900	0.39331100	-0.73461900	-0.52563500	-0.09399400	-0.78051800	-0.16406200	-0.27587900
920	9.19000000	-0.89721700	-0.25341800	0.20263700	-0.72778300	0.24951200	-0.59350600	-0.29809600	-0.77856400	-0.07788100	-0.73315400	-0.45800800	-0.20068400	-0.60864300	0.46875000	0.33447300	-0.67846700	0.32275400	0.38647500	-0.74731400	-0.51538100	-0.11718800	-0.78735400	-0.15966800	-0.27148400
921	9.20000000	-0.89721700	-0.25341800	0.20263700	-0.71923800	0.24951200	-0.58886700	-0.32348600	-0.77026400	-0.06933600	-0.73999000	-0.44555700	-0.18750000	-0.60205100	0.47094700	0.32739300	-0.67211900	0.32934600	0.39331100	-0.74780300	-0.49902300	-0.14648400	-0.79174800	-0.15991200	-0.26025400
922	9.21000000	-0.89282200	-0.25341800	0.20043900	-0.72168000	0.25805700	-0.59619100	-0.34887700	-0.75756800	-0.06762700	-0.74438500	-0.43725600	-0.18774400	-0.61108400	0.47314500	0.33422900	-0.67236300	0.33813500	0.39306600	-0.75634800	-0.48266600	-0.17797900	-0.79394500	-0.16650400	-0.26025400
